<svg width="19" height="9" viewBox="0 0 19 9" fill="none" xmlns="http://www.w3.org/2000/svg">
<path d="M9.40784 4.94586C9.40784 5.34136 9.07783 5.6569 8.68273 5.63919L8.64433 5.63747C8.09062 5.61264 7.74485 6.22909 8.05473 6.68865C8.27567 7.0163 8.16895 7.46284 7.82375 7.65519L6.72143 8.26942C6.37911 8.46017 5.94687 8.33166 5.76437 7.98486C5.50435 7.49075 4.79437 7.494 4.52917 7.98536C4.34268 8.33088 3.90759 8.46096 3.5646 8.26984L2.46152 7.65519C2.11632 7.46283 2.00961 7.0163 2.23055 6.68865C2.54042 6.22909 2.19466 5.61264 1.64095 5.63747L1.60254 5.63919C1.20744 5.6569 0.877441 5.34136 0.877441 4.94587V3.75829C0.877441 3.3628 1.20744 3.04725 1.60254 3.06497L1.64095 3.06669C2.19466 3.09151 2.54042 2.47506 2.23055 2.01551C2.00961 1.68786 2.11632 1.24132 2.46152 1.04897L3.5646 0.434311C3.90759 0.243191 4.34268 0.373272 4.52917 0.718798C4.79437 1.21015 5.50435 1.21341 5.76437 0.719294C5.94687 0.372499 6.37911 0.243982 6.72143 0.434732L7.82375 1.04897C8.16895 1.24132 8.27567 1.68786 8.05473 2.01551C7.74485 2.47507 8.09061 3.09151 8.64433 3.06669L8.68273 3.06497C9.07783 3.04725 9.40784 3.36279 9.40784 3.75829V4.94586Z" fill="black"/>
<path d="M17.8885 6.99891C17.6908 7.34142 17.2472 7.44968 16.9139 7.23679L16.8815 7.2161C16.4144 6.91774 15.8067 7.27873 15.8453 7.83165C15.8728 8.22588 15.5571 8.55923 15.162 8.55321L13.9002 8.53399C13.5084 8.52803 13.1983 8.20061 13.2137 7.80903C13.2355 7.2511 12.6191 6.89893 12.1437 7.19186C11.8094 7.39785 11.3676 7.29295 11.1661 6.95594L10.5182 5.8721C10.3154 5.53291 10.4462 5.09284 10.8014 4.91956C11.2995 4.67651 11.3083 3.96977 10.8164 3.71441L10.7823 3.6967C10.4312 3.51449 10.3032 3.07622 10.501 2.73371L11.0948 1.70524C11.2925 1.36273 11.7361 1.25447 12.0694 1.46736L12.1018 1.48805C12.5689 1.78641 13.1765 1.42542 13.138 0.872497C13.1105 0.478276 13.4261 0.144921 13.8213 0.150939L15.0839 0.170168C15.4765 0.176147 15.7882 0.506346 15.777 0.898827C15.761 1.45695 16.3742 1.81476 16.8465 1.51685C17.1779 1.30777 17.6165 1.41259 17.8176 1.74895L18.4651 2.83205C18.6679 3.17124 18.537 3.61131 18.1819 3.78459C17.6837 4.02764 17.6749 4.73439 18.1669 4.98974L18.201 5.00745C18.552 5.18966 18.68 5.62793 18.4823 5.97044L17.8885 6.99891Z" fill="black"/>
</svg>
