<svg width="22" height="23" viewBox="0 0 22 23" fill="none" xmlns="http://www.w3.org/2000/svg">
<rect width="21.3333" height="22.3333" rx="10.6667" fill="#F4F4F4"/>
<path d="M10.6667 10.3333C12.1394 10.3333 13.3333 9.13943 13.3333 7.66667C13.3333 6.19391 12.1394 5 10.6667 5C9.19391 5 8 6.19391 8 7.66667C8 9.13943 9.19391 10.3333 10.6667 10.3333Z" stroke="#404040" stroke-linecap="round" stroke-linejoin="round"/>
<path d="M15.3333 17.3333V16C15.3333 15.2928 15.0524 14.6145 14.5523 14.1144C14.0522 13.6143 13.3739 13.3333 12.6667 13.3333H8.66667C7.95942 13.3333 7.28115 13.6143 6.78105 14.1144C6.28095 14.6145 6 15.2928 6 16V17.3333" stroke="#404040" stroke-linecap="round" stroke-linejoin="round"/>
</svg>
